<svg xmlns="http://www.w3.org/2000/svg" width="768" height="768"><path d="M384 209.375c96.393 0 174.625 78.232 174.625 174.625 0 22.701-4.54 44.005-12.573 63.913l101.981 101.981C700.77 505.889 742.331 448.961 767.826 384c-60.42-153.321-209.55-261.938-384.174-261.938-48.895 0-95.695 8.731-139.001 24.448l75.438 75.438c19.907-8.032 41.212-12.573 63.913-12.573zM34.75 114.03l95.695 95.695C72.469 254.778 27.067 314.85-.174 384.001 60.246 537.322 209.376 645.938 384 645.938c54.133 0 105.823-10.477 152.971-29.337l14.668 14.668 102.33 101.981 44.355-44.355L79.105 69.676 34.75 114.031zm193.135 193.135 54.133 54.133c-1.746 7.334-2.794 15.018-2.794 22.701 0 57.976 46.799 104.775 104.775 104.775 7.684 0 15.367-1.048 22.701-2.794l54.134 54.134c-23.4 11.525-49.244 18.51-76.835 18.51-96.393 0-174.625-78.232-174.625-174.625 0-27.591 6.985-53.435 18.51-76.835zm150.527-27.242 110.014 110.014.698-5.588c0-57.976-46.799-104.775-104.775-104.775l-5.937.349z"/></svg>